<?xml version="1.0" encoding="utf-8"?>
<!-- Generator: Adobe Illustrator 15.0.0, SVG Export Plug-In . SVG Version: 6.00 Build 0)  -->
<!DOCTYPE svg PUBLIC "-//W3C//DTD SVG 1.1//EN" "http://www.w3.org/Graphics/SVG/1.1/DTD/svg11.dtd">
<svg version="1.1" id="Layer_1" xmlns="http://www.w3.org/2000/svg" xmlns:xlink="http://www.w3.org/1999/xlink" x="0px" y="0px"
	 width="499.997px" height="499.999px" viewBox="0 0 499.997 499.999" enable-background="new 0 0 499.997 499.999"
	 xml:space="preserve">
<g id="Layer_X">
	<g id="change1_1_">
		<path fill="#EA5A42" d="M249.999,92.664c-86.755,0-157.335,70.58-157.335,157.335s70.58,157.336,157.335,157.336
			s157.336-70.581,157.336-157.336S336.754,92.664,249.999,92.664z M249.999,368.335c-65.25,0-118.335-53.085-118.335-118.336
			c0-65.25,53.085-118.335,118.335-118.335c65.251,0,118.336,53.085,118.336,118.335C368.335,315.25,315.25,368.335,249.999,368.335
			z"/>
		<path fill="#EA5A42" d="M479.909,261.232l-17.864-13.813l-1.478-22.538l15.554-15.628l17.758-22.108l-12.13-35.747l-27.026-6.626
			l-22.376-3.03l-12.547-18.78l5.655-21.312l4.325-28.026L401.4,48.736l-26.718,7.771l-20.896,8.566l-20.259-9.989l-5.757-21.282
			L317.509,7.364L280.484,0l-19.252,20.089l-13.813,17.865l-22.538,1.477l-15.628-15.553L187.145,6.117L151.4,18.252l-6.627,27.021
			l-3.03,22.379l-18.78,12.549l-21.312-5.655l-28.026-4.329L48.736,98.6l7.77,26.716l8.566,20.895l-9.989,20.258L33.8,172.226
			L7.364,182.492L0,219.515l20.089,19.251l17.865,13.813l1.478,22.541l-15.554,15.628L6.117,312.855l12.135,35.74l27.021,6.633
			l22.38,3.026l12.549,18.782l-5.655,21.31l-4.329,28.025L98.6,451.265l26.716-7.771l20.896-8.567l20.257,9.988l5.758,21.283
			l10.265,26.435l37.023,7.366l19.251-20.09l13.813-17.864l22.541-1.478l15.628,15.554l22.108,17.758l35.738-12.13l6.633-27.025
			l3.027-22.377l18.782-12.547l21.31,5.655l28.026,4.325l24.89-28.38l-7.771-26.717l-8.567-20.896l9.988-20.26l21.283-5.756
			l26.435-10.265l7.366-37.022L479.909,261.232z M249.999,417.335c-92.269,0-167.335-75.065-167.335-167.336
			c0-92.269,75.066-167.335,167.335-167.335c92.27,0,167.336,75.066,167.336,167.335
			C417.335,342.27,342.269,417.335,249.999,417.335z"/>
	</g>
</g>
</svg>
